# xmcd
# 
# Track frame offsets:
#     150
#     14849
#     48693
#     62366
#     81033
#     102464
#     121768
#     143366
#     164459
#     190451
#     227843
#     253651
#     267089
#     275725
#     294785
#     309594
# 
# Disc length: 4390
# 
# Revision: 7
# Processed by: cddbd v1.5.2PL0 Copyright (c) Steve Scherf et al.
# Submitted via: fre:ac v1.0.27
# 
DISCID=e3112410
DTITLE=Various Artist - Cuba Libre
DYEAR=1999
DGENRE=Salsa
TTITLE0=Portables/El Carretero
TTITLE1=Marquetti/Amor Verdadero
TTITLE2=Carillo/Dos Gardenias
TTITLE3=Traditional/Carretero
TTITLE4=P. Jose Manzo/Moliendo Cafe
TTITLE5=Repilado/Chan Chan
TTITLE6=Andy Valentin, Siembra/El Mundo
TTITLE7=Juan Carlos Alfonso - El Inspector de la Salsa/Mia Cuerpo
TTITLE8=Becquer/A Toda Cuba le Gusta
TTITLE9=Martinez/Alto Songo
TTITLE10=Traditional/Lloro
TTITLE11=Traditional/Chavela
TTITLE12=Alberto Rodriquez, Grupo Chevere/Embrujo de Amor
TTITLE13=Matamoros/Son de la Loma
TTITLE14=Rodriguez/El Guavo de Catalina
TTITLE15=Fajardo/La Charanga
EXTD=YEAR: 1999
EXTT0=
EXTT1=
EXTT2=
EXTT3=
EXTT4=
EXTT5=
EXTT6=
EXTT7=
EXTT8=
EXTT9=
EXTT10=
EXTT11=
EXTT12=
EXTT13=
EXTT14=
EXTT15=
PLAYORDER=
